<svg width="48" height="48" viewBox="0 0 48 48" fill="none" xmlns="http://www.w3.org/2000/svg">
<rect width="48" height="48" rx="16" fill="white"/>
<path d="M18.0514 13.6967C16.9193 14.8498 16.9193 16.7157 18.0724 17.8687L20.5881 20.3845C22.9572 22.7535 22.9572 26.6111 20.5881 28.9801L15.9759 24.3678C14.7914 23.1833 14.1939 21.6214 14.1939 20.07C14.1939 18.5186 14.7914 16.9568 15.9759 15.7723L18.02 13.7282C18.0304 13.7177 18.0409 13.7072 18.0514 13.6967Z" fill="#5D5FEF"/>
<path d="M20.0639 19.8593L18.0723 17.8676C16.9192 16.7146 16.9087 14.8592 18.0513 13.6956C19.1834 12.5845 20.9864 12.6055 22.108 13.7271C22.674 14.2931 22.957 15.0374 22.957 15.7711C22.957 16.5049 22.674 17.2492 22.108 17.8152L21.6363 18.2869" fill="#5D5FEF"/>
<path d="M29.9486 34.2939C31.0807 33.1409 31.0807 31.275 29.9277 30.1219L27.4119 27.6062C25.0429 25.2371 25.0429 21.3796 27.4119 19.0106L32.0241 23.6228C33.2086 24.8074 33.8061 26.3692 33.8061 27.9206C33.8061 29.472 33.2086 31.0339 32.0241 32.2184L29.9801 34.2625C29.9591 34.2834 29.9486 34.2939 29.9486 34.2939Z" fill="#5D5FEF"/>
<path d="M27.9251 28.1407L29.9167 30.1323C31.0698 31.2854 31.0803 33.1408 29.9377 34.3043C28.8056 35.4155 27.0026 35.3945 25.881 34.2729C25.3149 33.7068 25.0319 32.9626 25.0319 32.2288C25.0319 31.4951 25.3149 30.7508 25.881 30.1848L26.3632 29.7026" fill="#5D5FEF"/>
</svg>
